<svg xmlns="http://www.w3.org/2000/svg" version="1.1" xmlns:xlink="http://www.w3.org/1999/xlink" xmlns:svgjs="http://svgjs.dev/svgjs" width="2000" height="823" viewBox="0 0 2000 823"><g transform="matrix(1,0,0,1,-1.2121212121212466,1.0302059603401403)"><svg viewBox="0 0 396 163" data-background-color="#ffffff" preserveAspectRatio="xMidYMid meet" height="823" width="2000" xmlns="http://www.w3.org/2000/svg" xmlns:xlink="http://www.w3.org/1999/xlink"><g id="tight-bounds" transform="matrix(1,0,0,1,0.2400000000000091,-0.2040383615254484)"><svg viewBox="0 0 395.52 163.4080767230509" height="163.4080767230509" width="395.52"><g><svg viewBox="0 0 395.52 163.4080767230509" height="163.4080767230509" width="395.52"><g transform="matrix(1,0,0,1,0,100.99274702175464)"><svg viewBox="0 0 395.52 62.415329701296244" height="62.415329701296244" width="395.52"><g id="textblocktransform"><svg viewBox="0 0 395.52 62.415329701296244" height="62.415329701296244" width="395.52" id="textblock"><g><svg viewBox="0 0 395.52 62.415329701296244" height="62.415329701296244" width="395.52"><g transform="matrix(1,0,0,1,0,0)"><svg width="395.52" viewBox="3 -41.5 266.13 42" height="62.415329701296244" data-palette-color="#000000"><path d="M33.55-35.4L34.45-38.5 35.85-38.5 36.3-27 34.45-27Q33.35-31.4 30.2-33.9 27.05-36.4 22.6-36.4L22.6-36.4Q19.55-36.4 17.15-35.2 14.75-34 13.1-31.75 11.45-29.5 10.58-26.25 9.7-23 9.7-18.9L9.7-18.9Q9.7-10.85 13.05-6.53 16.4-2.2 22.75-2.2L22.75-2.2Q32.4-2.2 35.15-12.45L35.15-12.45 37.2-12.45 37.2 0 35.45 0 34.3-3.95Q29.05 0.5 21.6 0.5L21.6 0.5Q17.35 0.5 13.93-0.85 10.5-2.2 8.08-4.67 5.65-7.15 4.33-10.7 3-14.25 3-18.6L3-18.6Q3-23.15 4.4-26.9 5.8-30.65 8.33-33.35 10.85-36.05 14.38-37.52 17.9-39 22.15-39L22.15-39Q25.15-39 27.8-38.15 30.45-37.3 33.55-35.4L33.55-35.4ZM50.55-41.5L50.55-7.8Q50.55-5.9 50.7-4.75 50.85-3.6 51.32-2.95 51.8-2.3 52.67-2.05 53.55-1.8 55-1.75L55-1.75 55 0 41.2 0 41.2-1.75Q42.7-1.8 43.6-2.08 44.5-2.35 45.02-2.95 45.55-3.55 45.72-4.63 45.9-5.7 45.9-7.45L45.9-7.45 45.9-29Q45.9-31.7 45.82-33.52 45.75-35.35 45.6-36L45.6-36Q45.35-37.15 44.42-37.55 43.5-37.95 41.1-37.95L41.1-37.95 41.1-39.65 50.55-41.5ZM80.9-6.05L82.45-4.65Q78.2 0.5 71.9 0.5L71.9 0.5Q68.95 0.5 66.55-0.48 64.15-1.45 62.42-3.23 60.7-5 59.75-7.48 58.8-9.95 58.8-12.95L58.8-12.95Q58.8-16 59.8-18.6 60.8-21.2 62.62-23.05 64.45-24.9 66.97-25.95 69.5-27 72.5-27L72.5-27Q77.34-27 80-24.38 82.65-21.75 82.65-16.85L82.65-16.85Q82.65-16.15 82.37-16 82.09-15.85 81.09-15.85L81.09-15.85 64.65-15.85Q64.55-15.45 64.5-14.88 64.45-14.3 64.45-13.6L64.45-13.6Q64.45-11 65.07-8.88 65.7-6.75 66.87-5.25 68.05-3.75 69.67-2.93 71.3-2.1 73.3-2.1L73.3-2.1Q75.4-2.1 77.2-3.03 79-3.95 80.9-6.05L80.9-6.05ZM65-18.15L74.2-18.15Q75.2-18.15 75.8-18.2 76.4-18.25 76.7-18.4 77-18.55 77.09-18.82 77.2-19.1 77.2-19.55L77.2-19.55Q77.2-21.85 75.72-23.23 74.25-24.6 71.7-24.6L71.7-24.6Q66.3-24.6 65-18.15L65-18.15ZM102.44-10.85L102.44-14.8Q99.59-13.7 97.62-12.65 95.64-11.6 94.44-10.55 93.24-9.5 92.72-8.45 92.19-7.4 92.19-6.3L92.19-6.3Q92.19-4.65 93.29-3.6 94.39-2.55 96.19-2.55L96.19-2.55Q97.49-2.55 98.62-3.2 99.74-3.85 100.59-4.98 101.44-6.1 101.94-7.63 102.44-9.15 102.44-10.85L102.44-10.85ZM95.24-13.8L102.44-16.95 102.44-19Q102.44-25.1 97.24-25.1L97.24-25.1Q96.39-25.1 95.79-24.95 95.19-24.8 94.79-24.45 94.39-24.1 94.07-23.45 93.74-22.8 93.44-21.85L93.44-21.85Q92.89-20.4 92.37-19.93 91.84-19.45 90.84-19.45L90.84-19.45Q88.34-19.45 88.34-21.95L88.34-21.95Q88.34-24.35 90.89-25.68 93.44-27 98.14-27L98.14-27Q103.14-27 105.24-25.23 107.34-23.45 107.34-19.2L107.34-19.2 107.34-8Q107.34-2.3 109.59-2.3L109.59-2.3Q110.29-2.3 110.94-2.48 111.59-2.65 112.04-3.4L112.04-3.4 112.74-2.2Q112.14-1.05 110.54-0.28 108.94 0.5 107.19 0.5L107.19 0.5Q104.99 0.5 103.92-0.9 102.84-2.3 102.84-4.85L102.84-4.85 102.59-4.85Q101.29-2.4 98.99-0.98 96.69 0.45 93.89 0.45L93.89 0.45Q90.74 0.45 88.94-1.15 87.14-2.75 87.14-5.45L87.14-5.45Q87.14-6.65 87.57-7.75 87.99-8.85 88.94-9.85 89.89-10.85 91.44-11.83 92.99-12.8 95.24-13.8L95.24-13.8ZM123.79-9.65L123.79-7.95Q123.79-5.9 123.89-4.7 123.99-3.5 124.42-2.88 124.84-2.25 125.64-2.05 126.44-1.85 127.89-1.75L127.89-1.75 127.89 0 114.59 0 114.59-1.75Q116.04-1.8 116.89-2.02 117.74-2.25 118.19-2.85 118.64-3.45 118.77-4.58 118.89-5.7 118.89-7.6L118.89-7.6 118.89-13.45Q118.89-16.85 118.82-18.75 118.74-20.65 118.32-21.55 117.89-22.45 116.99-22.63 116.09-22.8 114.49-22.8L114.49-22.8 114.49-24.55 123.24-26.45 123.94-20.25 124.14-20.25Q124.79-21.75 125.77-23 126.74-24.25 127.89-25.13 129.04-26 130.29-26.5 131.54-27 132.84-27L132.84-27Q134.44-27 135.37-26.23 136.29-25.45 136.29-24.15L136.29-24.15Q136.29-22.95 135.54-22.28 134.79-21.6 133.39-21.6L133.39-21.6Q132.59-21.6 132.04-21.8 131.49-22 131.06-22.23 130.64-22.45 130.27-22.65 129.89-22.85 129.44-22.85L129.44-22.85Q128.09-22.85 126.74-21.13 125.39-19.4 124.64-16.75L124.64-16.75Q124.24-15.3 124.02-13.48 123.79-11.65 123.79-9.65L123.79-9.65ZM172.69 0.5L169.69 0.5 145.94-30.8 145.74-30.8 145.74-9.45Q145.74-6.95 145.91-5.5 146.09-4.05 146.61-3.25 147.14-2.45 148.11-2.2 149.09-1.95 150.69-1.9L150.69-1.9 150.69 0 137.24 0 137.24-1.9Q138.99-1.95 140.06-2.23 141.14-2.5 141.74-3.25 142.34-4 142.54-5.38 142.74-6.75 142.74-9.1L142.74-9.1 142.74-29.4Q142.74-31.5 142.56-32.88 142.39-34.25 141.86-35.05 141.34-35.85 140.34-36.18 139.34-36.5 137.74-36.6L137.74-36.6 137.74-38.5 147.64-38.5 169.49-9.35 169.69-9.35 169.69-29.05Q169.69-31.5 169.51-32.98 169.34-34.45 168.81-35.25 168.29-36.05 167.31-36.3 166.34-36.55 164.74-36.6L164.74-36.6 164.74-38.5 178.19-38.5 178.19-36.6Q176.44-36.55 175.36-36.27 174.29-36 173.69-35.25 173.09-34.5 172.89-33.1 172.69-31.7 172.69-29.4L172.69-29.4 172.69 0.5ZM203.19-6.05L204.74-4.65Q200.49 0.5 194.19 0.5L194.19 0.5Q191.24 0.5 188.84-0.48 186.44-1.45 184.71-3.23 182.99-5 182.04-7.48 181.09-9.95 181.09-12.95L181.09-12.95Q181.09-16 182.09-18.6 183.09-21.2 184.91-23.05 186.74-24.9 189.26-25.95 191.79-27 194.79-27L194.79-27Q199.64-27 202.29-24.38 204.94-21.75 204.94-16.85L204.94-16.85Q204.94-16.15 204.66-16 204.39-15.85 203.39-15.85L203.39-15.85 186.94-15.85Q186.84-15.45 186.79-14.88 186.74-14.3 186.74-13.6L186.74-13.6Q186.74-11 187.36-8.88 187.99-6.75 189.16-5.25 190.34-3.75 191.96-2.93 193.59-2.1 195.59-2.1L195.59-2.1Q197.69-2.1 199.49-3.03 201.29-3.95 203.19-6.05L203.19-6.05ZM187.29-18.15L196.49-18.15Q197.49-18.15 198.09-18.2 198.69-18.25 198.99-18.4 199.29-18.55 199.39-18.82 199.49-19.1 199.49-19.55L199.49-19.55Q199.49-21.85 198.01-23.23 196.54-24.6 193.99-24.6L193.99-24.6Q188.59-24.6 187.29-18.15L187.29-18.15ZM227.88-17.95L220.53 0.5 218.68 0.5 212.18-20.3Q211.73-21.7 211.33-22.55 210.93-23.4 210.38-23.9 209.83-24.4 209.08-24.58 208.33-24.75 207.23-24.75L207.23-24.75 207.23-26.5 220.48-26.5 220.48-24.75Q218.53-24.75 217.73-24.3 216.93-23.85 216.93-22.75L216.93-22.75Q216.93-22.25 217.08-21.58 217.23-20.9 217.48-19.9L217.48-19.9 220.88-7.95 221.08-7.95 228.43-26.5 229.98-26.5 236.63-7.95 236.83-7.95 239.83-16.05Q240.43-17.7 240.83-18.82 241.23-19.95 241.46-20.73 241.68-21.5 241.78-22 241.88-22.5 241.88-22.95L241.88-22.95Q241.88-24.05 241.23-24.4 240.58-24.75 238.53-24.75L238.53-24.75 238.53-26.5 248.53-26.5 248.53-24.75Q247.78-24.75 247.26-24.53 246.73-24.3 246.21-23.65 245.68-23 245.13-21.8 244.58-20.6 243.78-18.65L243.78-18.65 236.03 0.5 234.18 0.5 228.08-17.95 227.88-17.95ZM254.08-1.75L253.08 0 251.98 0 251.98-8.6 253.23-8.6Q255.18-1.55 260.33-1.55L260.33-1.55Q262.33-1.55 263.51-2.53 264.68-3.5 264.68-5.5L264.68-5.5Q264.68-6.25 264.46-6.78 264.23-7.3 263.61-7.88 262.98-8.45 261.86-9.2 260.73-9.95 258.88-11.1L258.88-11.1Q257.18-12.15 255.93-13.05 254.68-13.95 253.83-14.88 252.98-15.8 252.56-16.85 252.13-17.9 252.13-19.3L252.13-19.3Q252.13-21 252.71-22.43 253.28-23.85 254.28-24.85 255.28-25.85 256.63-26.43 257.98-27 259.58-27L259.58-27Q260.93-27 262.38-26.58 263.83-26.15 264.93-25.45L264.93-25.45 265.93-26.5 266.88-26.5 266.88-19.3 265.58-19.3Q264.48-22.35 263.18-23.65 261.88-24.95 259.98-24.95L259.98-24.95Q258.28-24.95 257.26-24.05 256.23-23.15 256.23-21.55L256.23-21.55Q256.23-20.7 256.51-20.08 256.78-19.45 257.38-18.85 257.98-18.25 258.91-17.63 259.83-17 261.13-16.2L261.13-16.2Q263.28-14.85 264.81-13.8 266.33-12.75 267.28-11.73 268.23-10.7 268.68-9.6 269.13-8.5 269.13-7.1L269.13-7.1Q269.13-3.55 266.83-1.53 264.53 0.5 260.78 0.5L260.78 0.5Q256.88 0.5 254.08-1.75L254.08-1.75Z" opacity="1" transform="matrix(1,0,0,1,0,0)" fill="#ffffff" class="wordmark-text-0" data-fill-palette-color="primary" id="text-0"></path></svg></g></svg></g></svg></g></svg></g><g transform="matrix(1,0,0,1,154.63100717640427,0)"><svg viewBox="0 0 86.25798564719143 86.25798564719142" height="86.25798564719142" width="86.25798564719143"><g><svg></svg></g><g id="icon-0"><svg viewBox="0 0 86.25798564719143 86.25798564719142" height="86.25798564719142" width="86.25798564719143"><g><path transform="scale(0.86258,0.86258)" d="M30 100c-16.569 0-30-13.431-30-30v-40c0-16.569 13.431-30 30-30h40c16.569 0 30 13.431 30 30v40c0 16.569-13.431 30-30 30z" fill="#ffffff" fill-rule="nonzero" stroke="none" stroke-width="1" stroke-linecap="butt" stroke-linejoin="miter" stroke-miterlimit="10" stroke-dasharray="" stroke-dashoffset="0" font-family="none" font-weight="none" font-size="none" text-anchor="none" style="mix-blend-mode: normal" data-fill-palette-color="accent"></path></g><g transform="matrix(1,0,0,1,17.251597129438288,22.31665164386721)"><svg viewBox="0 0 51.75479138831486 41.624682359457" height="41.624682359457" width="51.75479138831486"><g><svg xmlns="http://www.w3.org/2000/svg" xmlns:xlink="http://www.w3.org/1999/xlink" version="1.1" x="0" y="0" viewBox="0 9.786 100.00034525290006 80.42699999999999" enable-background="new 0 0 100 100" xml:space="preserve" width="51.75479138831486" height="41.624682359457" class="icon-cg-0" data-fill-palette-color="quaternary" id="cg-0"><path d="M49.942 52.994c13.552-0.488 27.103-0.977 40.653-1.465-2.527-4.177-3.159-7.831-7.989-8.461-7.229-0.94-14.458-1.883-21.688-2.826-14.023-1.827-28.05-3.654-42.075-5.48C20.101 36.792 39.724 53.361 49.942 52.994z" fill="#000000" data-fill-palette-color="quaternary"></path><path d="M0 9.786c4.391 7.257 26.615 23.072 32.953 23.886 17.33 2.231 34.657 4.46 51.986 6.688-3.393-5.607-4.18-9.35-10.312-10.959-8.904-2.341-17.812-4.683-26.717-7.023C31.94 18.182 15.97 13.984 0 9.786z" fill="#000000" data-fill-palette-color="quaternary"></path><path d="M63.108 66.207c10.413-2.219 20.826-4.439 31.241-6.66-2.028-3.346-2.034-5.359-5.827-5.189-6.158 0.273-12.314 0.549-18.471 0.822-11.343 0.506-22.686 1.014-34.028 1.518C37.298 58.064 54.94 67.947 63.108 66.207z" fill="#000000" data-fill-palette-color="quaternary"></path><path d="M87.682 90.213c5.725-3.719 7.262-7.721 10.519-13.807 3.651-6.824 1.257-7.844-2.821-14.596-0.417-0.688-5.842 0.232-6.453 0.904-0.745 0.818-0.248 5.455-0.294 6.496C88.315 76.211 87.998 83.213 87.682 90.213z" fill="#000000" data-fill-palette-color="quaternary"></path><path d="M86.35 63.447c-3.795 0.809-8.604 0.191-9.572 4.229-1.373 5.736-2.746 11.475-4.12 17.211C81.904 82.678 86.028 71.582 86.35 63.447z" fill="#000000" data-fill-palette-color="quaternary"></path><path d="M74.666 66.121c-9.148 1.953-8.956 4.611-12.879 13.18C68.007 78.711 73.811 71.941 74.666 66.121z" fill="#000000" data-fill-palette-color="quaternary"></path></svg></g></svg></g></svg></g></svg></g><g></g></svg></g><defs></defs></svg><rect width="395.52" height="163.4080767230509" fill="none" stroke="none" visibility="hidden"></rect></g></svg></g></svg>